<svg width="412" height="104" viewBox="0 0 412 104" fill="none" xmlns="http://www.w3.org/2000/svg">
<path d="M106 0C107.105 0 108 0.895431 108 2V102C108 103.105 107.105 104 106 104C104.895 104 104 103.105 104 102V2C104 0.895431 104.895 0 106 0ZM98 8C99.1046 8 100 8.89543 100 10V94C100 95.1046 99.1046 96 98 96C96.8954 96 96 95.1046 96 94V10C96 8.89543 96.8954 8 98 8ZM2 12C3.10457 12 4 12.8954 4 14V90C4 91.1046 3.10457 92 2 92C0.895431 92 0 91.1046 0 90V14C0 12.8954 0.895431 12 2 12ZM154 12C155.105 12 156 12.8954 156 14V90C156 91.1046 155.105 92 154 92C152.895 92 152 91.1046 152 90V14C152 12.8954 152.895 12 154 12ZM90 14C91.1046 14 92 14.8954 92 16V88C92 89.1046 91.1046 90 90 90C88.8954 90 88 89.1046 88 88V16C88 14.8954 88.8954 14 90 14ZM114 14C115.105 14 116 14.8954 116 16V88C116 89.1046 115.105 90 114 90C112.895 90 112 89.1046 112 88V16C112 14.8954 112.895 14 114 14ZM146 16C147.105 16 148 16.8954 148 18V86C148 87.1046 147.105 88 146 88C144.895 88 144 87.1046 144 86V18C144 16.8954 144.895 16 146 16ZM10 20C11.1046 20 12 20.8954 12 22V82C12 83.1046 11.1046 84 10 84C8.89543 84 8 83.1046 8 82V22C8 20.8954 8.89543 20 10 20ZM170 20C171.105 20 172 20.8954 172 22V82C172 83.1046 171.105 84 170 84C168.895 84 168 83.1046 168 82V22C168 20.8954 168.895 20 170 20ZM178 20C179.105 20 180 20.8954 180 22V82C180 83.1046 179.105 84 178 84C176.895 84 176 83.1046 176 82V22C176 20.8954 176.895 20 178 20ZM274 22C275.105 22 276 22.8954 276 24V80C276 81.1046 275.105 82 274 82C272.895 82 272 81.1046 272 80V24C272 22.8954 272.895 22 274 22ZM18 24C19.1046 24 20 24.8954 20 26V78C20 79.1046 19.1046 80 18 80C16.8954 80 16 79.1046 16 78V26C16 24.8954 16.8954 24 18 24ZM26 24C27.1046 24 28 24.8954 28 26V78C28 79.1046 27.1046 80 26 80C24.8954 80 24 79.1046 24 78V26C24 24.8954 24.8954 24 26 24ZM82 24C83.1046 24 84 24.8954 84 26V78C84 79.1046 83.1046 80 82 80C80.8954 80 80 79.1046 80 78V26C80 24.8954 80.8954 24 82 24ZM162 24C163.105 24 164 24.8954 164 26V78C164 79.1046 163.105 80 162 80C160.895 80 160 79.1046 160 78V26C160 24.8954 160.895 24 162 24ZM258 24C259.105 24 260 24.8954 260 26V78C260 79.1046 259.105 80 258 80C256.895 80 256 79.1046 256 78V26C256 24.8954 256.895 24 258 24ZM282 26C283.105 26 284 26.8954 284 28V76C284 77.1046 283.105 78 282 78C280.895 78 280 77.1046 280 76V28C280 26.8954 280.895 26 282 26ZM122 28C123.105 28 124 28.8954 124 30V74C124 75.1046 123.105 76 122 76C120.895 76 120 75.1046 120 74V30C120 28.8954 120.895 28 122 28ZM34 32C35.1046 32 36 32.8954 36 34V70C36 71.1046 35.1046 72 34 72C32.8954 72 32 71.1046 32 70V34C32 32.8954 32.8954 32 34 32ZM138 32C139.105 32 140 32.8954 140 34V70C140 71.1046 139.105 72 138 72C136.895 72 136 71.1046 136 70V34C136 32.8954 136.895 32 138 32ZM186 32C187.105 32 188 32.8954 188 34V70C188 71.1046 187.105 72 186 72C184.895 72 184 71.1046 184 70V34C184 32.8954 184.895 32 186 32ZM226 32C227.105 32 228 32.8954 228 34V70C228 71.1046 227.105 72 226 72C224.895 72 224 71.1046 224 70V34C224 32.8954 224.895 32 226 32ZM242 32C243.105 32 244 32.8954 244 34V70C244 71.1046 243.105 72 242 72C240.895 72 240 71.1046 240 70V34C240 32.8954 240.895 32 242 32ZM290 32C291.105 32 292 32.8954 292 34V70C292 71.1046 291.105 72 290 72C288.895 72 288 71.1046 288 70V34C288 32.8954 288.895 32 290 32ZM50 34C51.1046 34 52 34.8954 52 36V68C52 69.1046 51.1046 70 50 70C48.8954 70 48 69.1046 48 68V36C48 34.8954 48.8954 34 50 34ZM266 34C267.105 34 268 34.8954 268 36V68C268 69.1046 267.105 70 266 70C264.895 70 264 69.1046 264 68V36C264 34.8954 264.895 34 266 34ZM330 34C331.105 34 332 34.8954 332 36V68C332 69.1046 331.105 70 330 70C328.895 70 328 69.1046 328 68V36C328 34.8954 328.895 34 330 34ZM362 34C363.105 34 364 34.8954 364 36V68C364 69.1046 363.105 70 362 70C360.895 70 360 69.1046 360 68V36C360 34.8954 360.895 34 362 34ZM378 34C379.105 34 380 34.8954 380 36V68C380 69.1046 379.105 70 378 70C376.895 70 376 69.1046 376 68V36C376 34.8954 376.895 34 378 34ZM58 36C59.1046 36 60 36.8954 60 38V66C60 67.1046 59.1046 68 58 68C56.8954 68 56 67.1046 56 66V38C56 36.8954 56.8954 36 58 36ZM66 36C67.1046 36 68 36.8954 68 38V66C68 67.1046 67.1046 68 66 68C64.8954 68 64 67.1046 64 66V38C64 36.8954 64.8954 36 66 36ZM218 36C219.105 36 220 36.8954 220 38V66C220 67.1046 219.105 68 218 68C216.895 68 216 67.1046 216 66V38C216 36.8954 216.895 36 218 36ZM234 36C235.105 36 236 36.8954 236 38V66C236 67.1046 235.105 68 234 68C232.895 68 232 67.1046 232 66V38C232 36.8954 232.895 36 234 36ZM386 36C387.105 36 388 36.8954 388 38V66C388 67.1046 387.105 68 386 68C384.895 68 384 67.1046 384 66V38C384 36.8954 384.895 36 386 36ZM74 38C75.1046 38 76 38.8954 76 40V64C76 65.1046 75.1046 66 74 66C72.8954 66 72 65.1046 72 64V40C72 38.8954 72.8954 38 74 38ZM250 38C251.105 38 252 38.8954 252 40V64C252 65.1046 251.105 66 250 66C248.895 66 248 65.1046 248 64V40C248 38.8954 248.895 38 250 38ZM322 38C323.105 38 324 38.8954 324 40V64C324 65.1046 323.105 66 322 66C320.895 66 320 65.1046 320 64V40C320 38.8954 320.895 38 322 38ZM338 38C339.105 38 340 38.8954 340 40V64C340 65.1046 339.105 66 338 66C336.895 66 336 65.1046 336 64V40C336 38.8954 336.895 38 338 38ZM42 40C43.1046 40 44 40.8954 44 42V62C44 63.1046 43.1046 64 42 64C40.8954 64 40 63.1046 40 62V42C40 40.8954 40.8954 40 42 40ZM354 40C355.105 40 356 40.8954 356 42V62C356 63.1046 355.105 64 354 64C352.895 64 352 63.1046 352 62V42C352 40.8954 352.895 40 354 40ZM370 40C371.105 40 372 40.8954 372 42V62C372 63.1046 371.105 64 370 64C368.895 64 368 63.1046 368 62V42C368 40.8954 368.895 40 370 40ZM394 40C395.105 40 396 40.8954 396 42V62C396 63.1046 395.105 64 394 64C392.895 64 392 63.1046 392 62V42C392 40.8954 392.895 40 394 40ZM210 42C211.105 42 212 42.8954 212 44V60C212 61.1046 211.105 62 210 62C208.895 62 208 61.1046 208 60V44C208 42.8954 208.895 42 210 42ZM346 42C347.105 42 348 42.8954 348 44V60C348 61.1046 347.105 62 346 62C344.895 62 344 61.1046 344 60V44C344 42.8954 344.895 42 346 42ZM194 44C195.105 44 196 44.8954 196 46V58C196 59.1046 195.105 60 194 60C192.895 60 192 59.1046 192 58V46C192 44.8954 192.895 44 194 44ZM298 44C299.105 44 300 44.8954 300 46V58C300 59.1046 299.105 60 298 60C296.895 60 296 59.1046 296 58V46C296 44.8954 296.895 44 298 44ZM314 44C315.105 44 316 44.8954 316 46V58C316 59.1046 315.105 60 314 60C312.895 60 312 59.1046 312 58V46C312 44.8954 312.895 44 314 44ZM402 44C403.105 44 404 44.8954 404 46V58C404 59.1046 403.105 60 402 60C400.895 60 400 59.1046 400 58V46C400 44.8954 400.895 44 402 44ZM130 46C131.105 46 132 46.8954 132 48V56C132 57.1046 131.105 58 130 58C128.895 58 128 57.1046 128 56V48C128 46.8954 128.895 46 130 46ZM202 48C203.105 48 204 48.8954 204 50V54C204 55.1046 203.105 56 202 56C200.895 56 200 55.1046 200 54V50C200 48.8954 200.895 48 202 48ZM306 48C307.105 48 308 48.8954 308 50V54C308 55.1046 307.105 56 306 56C304.895 56 304 55.1046 304 54V50C304 48.8954 304.895 48 306 48ZM410 48C411.105 48 412 48.8954 412 50V54C412 55.1046 411.105 56 410 56C408.895 56 408 55.1046 408 54V50C408 48.8954 408.895 48 410 48Z" fill="url(#paint0_linear_2110_1416)"/>
<path d="M106 0C107.105 0 108 0.895431 108 2V102C108 103.105 107.105 104 106 104C104.895 104 104 103.105 104 102V2C104 0.895431 104.895 0 106 0ZM98 8C99.1046 8 100 8.89543 100 10V94C100 95.1046 99.1046 96 98 96C96.8954 96 96 95.1046 96 94V10C96 8.89543 96.8954 8 98 8ZM2 12C3.10457 12 4 12.8954 4 14V90C4 91.1046 3.10457 92 2 92C0.895431 92 0 91.1046 0 90V14C0 12.8954 0.895431 12 2 12ZM154 12C155.105 12 156 12.8954 156 14V90C156 91.1046 155.105 92 154 92C152.895 92 152 91.1046 152 90V14C152 12.8954 152.895 12 154 12ZM90 14C91.1046 14 92 14.8954 92 16V88C92 89.1046 91.1046 90 90 90C88.8954 90 88 89.1046 88 88V16C88 14.8954 88.8954 14 90 14ZM114 14C115.105 14 116 14.8954 116 16V88C116 89.1046 115.105 90 114 90C112.895 90 112 89.1046 112 88V16C112 14.8954 112.895 14 114 14ZM146 16C147.105 16 148 16.8954 148 18V86C148 87.1046 147.105 88 146 88C144.895 88 144 87.1046 144 86V18C144 16.8954 144.895 16 146 16ZM10 20C11.1046 20 12 20.8954 12 22V82C12 83.1046 11.1046 84 10 84C8.89543 84 8 83.1046 8 82V22C8 20.8954 8.89543 20 10 20ZM170 20C171.105 20 172 20.8954 172 22V82C172 83.1046 171.105 84 170 84C168.895 84 168 83.1046 168 82V22C168 20.8954 168.895 20 170 20ZM178 20C179.105 20 180 20.8954 180 22V82C180 83.1046 179.105 84 178 84C176.895 84 176 83.1046 176 82V22C176 20.8954 176.895 20 178 20ZM274 22C275.105 22 276 22.8954 276 24V80C276 81.1046 275.105 82 274 82C272.895 82 272 81.1046 272 80V24C272 22.8954 272.895 22 274 22ZM18 24C19.1046 24 20 24.8954 20 26V78C20 79.1046 19.1046 80 18 80C16.8954 80 16 79.1046 16 78V26C16 24.8954 16.8954 24 18 24ZM26 24C27.1046 24 28 24.8954 28 26V78C28 79.1046 27.1046 80 26 80C24.8954 80 24 79.1046 24 78V26C24 24.8954 24.8954 24 26 24ZM82 24C83.1046 24 84 24.8954 84 26V78C84 79.1046 83.1046 80 82 80C80.8954 80 80 79.1046 80 78V26C80 24.8954 80.8954 24 82 24ZM162 24C163.105 24 164 24.8954 164 26V78C164 79.1046 163.105 80 162 80C160.895 80 160 79.1046 160 78V26C160 24.8954 160.895 24 162 24ZM258 24C259.105 24 260 24.8954 260 26V78C260 79.1046 259.105 80 258 80C256.895 80 256 79.1046 256 78V26C256 24.8954 256.895 24 258 24ZM282 26C283.105 26 284 26.8954 284 28V76C284 77.1046 283.105 78 282 78C280.895 78 280 77.1046 280 76V28C280 26.8954 280.895 26 282 26ZM122 28C123.105 28 124 28.8954 124 30V74C124 75.1046 123.105 76 122 76C120.895 76 120 75.1046 120 74V30C120 28.8954 120.895 28 122 28ZM34 32C35.1046 32 36 32.8954 36 34V70C36 71.1046 35.1046 72 34 72C32.8954 72 32 71.1046 32 70V34C32 32.8954 32.8954 32 34 32ZM138 32C139.105 32 140 32.8954 140 34V70C140 71.1046 139.105 72 138 72C136.895 72 136 71.1046 136 70V34C136 32.8954 136.895 32 138 32ZM186 32C187.105 32 188 32.8954 188 34V70C188 71.1046 187.105 72 186 72C184.895 72 184 71.1046 184 70V34C184 32.8954 184.895 32 186 32ZM226 32C227.105 32 228 32.8954 228 34V70C228 71.1046 227.105 72 226 72C224.895 72 224 71.1046 224 70V34C224 32.8954 224.895 32 226 32ZM242 32C243.105 32 244 32.8954 244 34V70C244 71.1046 243.105 72 242 72C240.895 72 240 71.1046 240 70V34C240 32.8954 240.895 32 242 32ZM290 32C291.105 32 292 32.8954 292 34V70C292 71.1046 291.105 72 290 72C288.895 72 288 71.1046 288 70V34C288 32.8954 288.895 32 290 32ZM50 34C51.1046 34 52 34.8954 52 36V68C52 69.1046 51.1046 70 50 70C48.8954 70 48 69.1046 48 68V36C48 34.8954 48.8954 34 50 34ZM266 34C267.105 34 268 34.8954 268 36V68C268 69.1046 267.105 70 266 70C264.895 70 264 69.1046 264 68V36C264 34.8954 264.895 34 266 34ZM330 34C331.105 34 332 34.8954 332 36V68C332 69.1046 331.105 70 330 70C328.895 70 328 69.1046 328 68V36C328 34.8954 328.895 34 330 34ZM362 34C363.105 34 364 34.8954 364 36V68C364 69.1046 363.105 70 362 70C360.895 70 360 69.1046 360 68V36C360 34.8954 360.895 34 362 34ZM378 34C379.105 34 380 34.8954 380 36V68C380 69.1046 379.105 70 378 70C376.895 70 376 69.1046 376 68V36C376 34.8954 376.895 34 378 34ZM58 36C59.1046 36 60 36.8954 60 38V66C60 67.1046 59.1046 68 58 68C56.8954 68 56 67.1046 56 66V38C56 36.8954 56.8954 36 58 36ZM66 36C67.1046 36 68 36.8954 68 38V66C68 67.1046 67.1046 68 66 68C64.8954 68 64 67.1046 64 66V38C64 36.8954 64.8954 36 66 36ZM218 36C219.105 36 220 36.8954 220 38V66C220 67.1046 219.105 68 218 68C216.895 68 216 67.1046 216 66V38C216 36.8954 216.895 36 218 36ZM234 36C235.105 36 236 36.8954 236 38V66C236 67.1046 235.105 68 234 68C232.895 68 232 67.1046 232 66V38C232 36.8954 232.895 36 234 36ZM386 36C387.105 36 388 36.8954 388 38V66C388 67.1046 387.105 68 386 68C384.895 68 384 67.1046 384 66V38C384 36.8954 384.895 36 386 36ZM74 38C75.1046 38 76 38.8954 76 40V64C76 65.1046 75.1046 66 74 66C72.8954 66 72 65.1046 72 64V40C72 38.8954 72.8954 38 74 38ZM250 38C251.105 38 252 38.8954 252 40V64C252 65.1046 251.105 66 250 66C248.895 66 248 65.1046 248 64V40C248 38.8954 248.895 38 250 38ZM322 38C323.105 38 324 38.8954 324 40V64C324 65.1046 323.105 66 322 66C320.895 66 320 65.1046 320 64V40C320 38.8954 320.895 38 322 38ZM338 38C339.105 38 340 38.8954 340 40V64C340 65.1046 339.105 66 338 66C336.895 66 336 65.1046 336 64V40C336 38.8954 336.895 38 338 38ZM42 40C43.1046 40 44 40.8954 44 42V62C44 63.1046 43.1046 64 42 64C40.8954 64 40 63.1046 40 62V42C40 40.8954 40.8954 40 42 40ZM354 40C355.105 40 356 40.8954 356 42V62C356 63.1046 355.105 64 354 64C352.895 64 352 63.1046 352 62V42C352 40.8954 352.895 40 354 40ZM370 40C371.105 40 372 40.8954 372 42V62C372 63.1046 371.105 64 370 64C368.895 64 368 63.1046 368 62V42C368 40.8954 368.895 40 370 40ZM394 40C395.105 40 396 40.8954 396 42V62C396 63.1046 395.105 64 394 64C392.895 64 392 63.1046 392 62V42C392 40.8954 392.895 40 394 40ZM210 42C211.105 42 212 42.8954 212 44V60C212 61.1046 211.105 62 210 62C208.895 62 208 61.1046 208 60V44C208 42.8954 208.895 42 210 42ZM346 42C347.105 42 348 42.8954 348 44V60C348 61.1046 347.105 62 346 62C344.895 62 344 61.1046 344 60V44C344 42.8954 344.895 42 346 42ZM194 44C195.105 44 196 44.8954 196 46V58C196 59.1046 195.105 60 194 60C192.895 60 192 59.1046 192 58V46C192 44.8954 192.895 44 194 44ZM298 44C299.105 44 300 44.8954 300 46V58C300 59.1046 299.105 60 298 60C296.895 60 296 59.1046 296 58V46C296 44.8954 296.895 44 298 44ZM314 44C315.105 44 316 44.8954 316 46V58C316 59.1046 315.105 60 314 60C312.895 60 312 59.1046 312 58V46C312 44.8954 312.895 44 314 44ZM402 44C403.105 44 404 44.8954 404 46V58C404 59.1046 403.105 60 402 60C400.895 60 400 59.1046 400 58V46C400 44.8954 400.895 44 402 44ZM130 46C131.105 46 132 46.8954 132 48V56C132 57.1046 131.105 58 130 58C128.895 58 128 57.1046 128 56V48C128 46.8954 128.895 46 130 46ZM202 48C203.105 48 204 48.8954 204 50V54C204 55.1046 203.105 56 202 56C200.895 56 200 55.1046 200 54V50C200 48.8954 200.895 48 202 48ZM306 48C307.105 48 308 48.8954 308 50V54C308 55.1046 307.105 56 306 56C304.895 56 304 55.1046 304 54V50C304 48.8954 304.895 48 306 48ZM410 48C411.105 48 412 48.8954 412 50V54C412 55.1046 411.105 56 410 56C408.895 56 408 55.1046 408 54V50C408 48.8954 408.895 48 410 48Z" fill="black" fill-opacity="0.2"/>
<defs>
<linearGradient id="paint0_linear_2110_1416" x1="0" y1="52" x2="412" y2="52" gradientUnits="userSpaceOnUse">
<stop stop-color="#FC4A1A"/>
<stop offset="1" stop-color="#F7B733"/>
</linearGradient>
</defs>
</svg>
